<mxfile host="Electron" agent="Mozilla/5.0 (Windows NT 10.0; Win64; x64) AppleWebKit/537.36 (KHTML, like Gecko) draw.io/27.0.2 Chrome/134.0.6998.205 Electron/35.3.0 Safari/537.36" version="27.0.2">
  <diagram name="Page-1" id="hTMHW3jCWr9rAptT6Wrz">
    <mxGraphModel dx="1665" dy="961" grid="1" gridSize="10" guides="1" tooltips="1" connect="1" arrows="1" fold="1" page="1" pageScale="1" pageWidth="827" pageHeight="1169" math="0" shadow="0">
      <root>
        <mxCell id="0" />
        <mxCell id="1" parent="0" />
        <mxCell id="DgRzAQDyQXtNezcEr9dz-29" style="edgeStyle=orthogonalEdgeStyle;rounded=0;orthogonalLoop=1;jettySize=auto;html=1;entryX=0.5;entryY=0;entryDx=0;entryDy=0;" parent="1" source="DgRzAQDyQXtNezcEr9dz-1" target="DgRzAQDyQXtNezcEr9dz-3" edge="1">
          <mxGeometry relative="1" as="geometry" />
        </mxCell>
        <mxCell id="DgRzAQDyQXtNezcEr9dz-1" value="" style="ellipse;fillColor=strokeColor;html=1;" parent="1" vertex="1">
          <mxGeometry x="365" y="250" width="40" height="40" as="geometry" />
        </mxCell>
        <mxCell id="DgRzAQDyQXtNezcEr9dz-5" style="edgeStyle=orthogonalEdgeStyle;rounded=0;orthogonalLoop=1;jettySize=auto;html=1;entryX=0.5;entryY=0;entryDx=0;entryDy=0;" parent="1" source="DgRzAQDyQXtNezcEr9dz-3" target="DgRzAQDyQXtNezcEr9dz-4" edge="1">
          <mxGeometry relative="1" as="geometry" />
        </mxCell>
        <mxCell id="DgRzAQDyQXtNezcEr9dz-6" value="neue Reservation" style="edgeLabel;html=1;align=center;verticalAlign=middle;resizable=0;points=[];" parent="DgRzAQDyQXtNezcEr9dz-5" vertex="1" connectable="0">
          <mxGeometry x="-0.1959" y="-2" relative="1" as="geometry">
            <mxPoint as="offset" />
          </mxGeometry>
        </mxCell>
        <mxCell id="DgRzAQDyQXtNezcEr9dz-3" value="Reservation" style="html=1;whiteSpace=wrap;" parent="1" vertex="1">
          <mxGeometry x="330" y="340" width="110" height="50" as="geometry" />
        </mxCell>
        <mxCell id="DgRzAQDyQXtNezcEr9dz-8" style="edgeStyle=orthogonalEdgeStyle;rounded=0;orthogonalLoop=1;jettySize=auto;html=1;entryX=0.5;entryY=0;entryDx=0;entryDy=0;" parent="1" source="DgRzAQDyQXtNezcEr9dz-4" target="DgRzAQDyQXtNezcEr9dz-7" edge="1">
          <mxGeometry relative="1" as="geometry" />
        </mxCell>
        <mxCell id="DgRzAQDyQXtNezcEr9dz-4" value="reservation erfassen" style="html=1;whiteSpace=wrap;" parent="1" vertex="1">
          <mxGeometry x="330" y="440" width="110" height="50" as="geometry" />
        </mxCell>
        <mxCell id="DgRzAQDyQXtNezcEr9dz-11" style="edgeStyle=orthogonalEdgeStyle;rounded=0;orthogonalLoop=1;jettySize=auto;html=1;entryX=0.5;entryY=0;entryDx=0;entryDy=0;" parent="1" source="DgRzAQDyQXtNezcEr9dz-7" target="DgRzAQDyQXtNezcEr9dz-10" edge="1">
          <mxGeometry relative="1" as="geometry" />
        </mxCell>
        <mxCell id="DgRzAQDyQXtNezcEr9dz-12" style="edgeStyle=orthogonalEdgeStyle;rounded=0;orthogonalLoop=1;jettySize=auto;html=1;entryX=0.5;entryY=1;entryDx=0;entryDy=0;" parent="1" source="DgRzAQDyQXtNezcEr9dz-7" target="DgRzAQDyQXtNezcEr9dz-13" edge="1">
          <mxGeometry relative="1" as="geometry">
            <mxPoint x="550" y="510" as="targetPoint" />
          </mxGeometry>
        </mxCell>
        <mxCell id="DgRzAQDyQXtNezcEr9dz-7" value="Erfassung Validieren" style="html=1;whiteSpace=wrap;" parent="1" vertex="1">
          <mxGeometry x="330" y="535" width="110" height="50" as="geometry" />
        </mxCell>
        <mxCell id="DgRzAQDyQXtNezcEr9dz-9" value="" style="ellipse;html=1;shape=endState;fillColor=#000000;strokeColor=#ff0000;" parent="1" vertex="1">
          <mxGeometry x="520" y="940" width="30" height="30" as="geometry" />
        </mxCell>
        <mxCell id="DgRzAQDyQXtNezcEr9dz-21" style="edgeStyle=orthogonalEdgeStyle;rounded=0;orthogonalLoop=1;jettySize=auto;html=1;entryX=0.5;entryY=0;entryDx=0;entryDy=0;" parent="1" source="DgRzAQDyQXtNezcEr9dz-10" target="DgRzAQDyQXtNezcEr9dz-16" edge="1">
          <mxGeometry relative="1" as="geometry" />
        </mxCell>
        <mxCell id="DgRzAQDyQXtNezcEr9dz-10" value="Erfassung bestätigen" style="html=1;whiteSpace=wrap;" parent="1" vertex="1">
          <mxGeometry x="330" y="640" width="110" height="50" as="geometry" />
        </mxCell>
        <mxCell id="DgRzAQDyQXtNezcEr9dz-14" style="edgeStyle=orthogonalEdgeStyle;rounded=0;orthogonalLoop=1;jettySize=auto;html=1;entryX=1;entryY=0.5;entryDx=0;entryDy=0;" parent="1" source="DgRzAQDyQXtNezcEr9dz-13" target="DgRzAQDyQXtNezcEr9dz-4" edge="1">
          <mxGeometry relative="1" as="geometry">
            <Array as="points">
              <mxPoint x="555" y="465" />
            </Array>
          </mxGeometry>
        </mxCell>
        <mxCell id="DgRzAQDyQXtNezcEr9dz-13" value="Error Anzeigen" style="html=1;whiteSpace=wrap;" parent="1" vertex="1">
          <mxGeometry x="500" y="485" width="110" height="50" as="geometry" />
        </mxCell>
        <mxCell id="DgRzAQDyQXtNezcEr9dz-22" style="edgeStyle=orthogonalEdgeStyle;rounded=0;orthogonalLoop=1;jettySize=auto;html=1;entryX=0.5;entryY=0;entryDx=0;entryDy=0;" parent="1" source="DgRzAQDyQXtNezcEr9dz-16" target="DgRzAQDyQXtNezcEr9dz-17" edge="1">
          <mxGeometry relative="1" as="geometry" />
        </mxCell>
        <mxCell id="DgRzAQDyQXtNezcEr9dz-23" style="edgeStyle=orthogonalEdgeStyle;rounded=0;orthogonalLoop=1;jettySize=auto;html=1;entryX=0.5;entryY=0;entryDx=0;entryDy=0;" parent="1" source="DgRzAQDyQXtNezcEr9dz-16" target="DgRzAQDyQXtNezcEr9dz-18" edge="1">
          <mxGeometry relative="1" as="geometry" />
        </mxCell>
        <mxCell id="DgRzAQDyQXtNezcEr9dz-16" value="Private oder Public Schlüssel" style="html=1;whiteSpace=wrap;" parent="1" vertex="1">
          <mxGeometry x="330" y="710" width="110" height="50" as="geometry" />
        </mxCell>
        <mxCell id="DgRzAQDyQXtNezcEr9dz-25" style="edgeStyle=orthogonalEdgeStyle;rounded=0;orthogonalLoop=1;jettySize=auto;html=1;entryX=0.5;entryY=0;entryDx=0;entryDy=0;" parent="1" source="DgRzAQDyQXtNezcEr9dz-17" target="DgRzAQDyQXtNezcEr9dz-19" edge="1">
          <mxGeometry relative="1" as="geometry" />
        </mxCell>
        <mxCell id="DgRzAQDyQXtNezcEr9dz-17" value="Termin Bearbeiten" style="html=1;whiteSpace=wrap;" parent="1" vertex="1">
          <mxGeometry x="330" y="780" width="110" height="50" as="geometry" />
        </mxCell>
        <mxCell id="DgRzAQDyQXtNezcEr9dz-24" style="edgeStyle=orthogonalEdgeStyle;rounded=0;orthogonalLoop=1;jettySize=auto;html=1;entryX=0.5;entryY=0;entryDx=0;entryDy=0;" parent="1" source="DgRzAQDyQXtNezcEr9dz-18" target="DgRzAQDyQXtNezcEr9dz-20" edge="1">
          <mxGeometry relative="1" as="geometry" />
        </mxCell>
        <mxCell id="DgRzAQDyQXtNezcEr9dz-18" value="Termin Anzeigen" style="html=1;whiteSpace=wrap;" parent="1" vertex="1">
          <mxGeometry x="480" y="780" width="110" height="50" as="geometry" />
        </mxCell>
        <mxCell id="DgRzAQDyQXtNezcEr9dz-27" style="edgeStyle=orthogonalEdgeStyle;rounded=0;orthogonalLoop=1;jettySize=auto;html=1;entryX=0;entryY=0.5;entryDx=0;entryDy=0;" parent="1" source="DgRzAQDyQXtNezcEr9dz-19" target="DgRzAQDyQXtNezcEr9dz-20" edge="1">
          <mxGeometry relative="1" as="geometry" />
        </mxCell>
        <mxCell id="DgRzAQDyQXtNezcEr9dz-19" value="Datenbank updaten" style="html=1;whiteSpace=wrap;" parent="1" vertex="1">
          <mxGeometry x="330" y="860" width="110" height="50" as="geometry" />
        </mxCell>
        <mxCell id="DgRzAQDyQXtNezcEr9dz-28" style="edgeStyle=orthogonalEdgeStyle;rounded=0;orthogonalLoop=1;jettySize=auto;html=1;entryX=0.5;entryY=0;entryDx=0;entryDy=0;" parent="1" source="DgRzAQDyQXtNezcEr9dz-20" target="DgRzAQDyQXtNezcEr9dz-9" edge="1">
          <mxGeometry relative="1" as="geometry" />
        </mxCell>
        <mxCell id="DgRzAQDyQXtNezcEr9dz-20" value="zurück zur startseite" style="html=1;whiteSpace=wrap;" parent="1" vertex="1">
          <mxGeometry x="480" y="860" width="110" height="50" as="geometry" />
        </mxCell>
      </root>
    </mxGraphModel>
  </diagram>
</mxfile>
